# xmcd CD database file generated by Grip 3.3.1
# 
# Track frame offsets:
#       150
#       16405
#       33495
# 
# Disc length: 649 seconds
# 
# Revision: 1
# Processed by: cddbd v1.5.1PL2 Copyright (c) Steve Scherf et al.
# Submitted via: Grip 3.3.1
# 
DISCID=1b028703
DTITLE=Veto Silver - When You're With That Girl
DYEAR=2005
DGENRE=Country
TTITLE0=when you're with that girl
TTITLE1=communication
TTITLE2=lost rhythm train
EXTD=
EXTT0=
EXTT1=
EXTT2=
PLAYORDER=
